<?xml version="1.0" encoding="utf-8"?>
<!-- Generator: Adobe Illustrator 22.1.0, SVG Export Plug-In . SVG Version: 6.00 Build 0)  -->
<svg version="1.1" xmlns="http://www.w3.org/2000/svg" xmlns:xlink="http://www.w3.org/1999/xlink" x="0px" y="0px"
	 viewBox="0 0 1024 1024" style="enable-background:new 0 0 1024 1024;" xml:space="preserve">
<style type="text/css">
	.st0{display:none;}
	.st1{fill-rule:evenodd;clip-rule:evenodd;fill:#4D4D4D;}
</style>
<g id="图层_1" class="st0">
</g>
<g id="图层_2">
	<path class="st1" d="M868.8,264.3c-58.9-9.7-114.5,30.2-124.2,89.1c-2.6,15.5-1.7,30.8,2.1,45.1l-121.5,53.6
		c-16.9-28-45.5-48.8-80.3-54.5c-26.4-4.3-52.1,0.6-73.9,12.4l-70.8-98.7c19.3-15.1,33.2-37.2,37.5-63.2
		c9.1-55.1-28.2-107.2-83.4-116.3c-55.1-9.1-107.2,28.2-116.3,83.4c-9.1,55.1,28.2,107.2,83.4,116.3c18.7,3.1,37.1,0.8,53.6-5.7
		l72.5,101.1c-18.2,16.8-31.1,39.6-35.5,66c-3,17.9-1.6,35.6,3.3,51.9l-110.8,48.9c-19.1-30.9-50.9-53.7-89.6-60.1
		C144,521.9,77.1,569.9,65.4,640.7c-11.7,70.9,36.3,137.8,107.2,149.5c70.9,11.7,137.8-36.3,149.5-107.2c3.6-22,1.5-43.6-5.2-63.3
		l110.2-48.6c16.9,28,45.5,48.8,80.3,54.5c26.4,4.3,52.1-0.6,73.9-12.4L658.4,721c-15.2,14.6-26,34.1-29.7,56.5
		c-9.1,55.1,28.2,107.2,83.4,116.3c55.1,9.1,107.2-28.2,116.3-83.4c9.1-55.1-28.2-107.2-83.4-116.3c-22.4-3.7-44.3,0.3-63,10
		l-77.3-107.8c18.2-16.8,31.1-39.6,35.5-66c3-17.9,1.6-35.6-3.3-51.9l120.9-53.4c15.7,26.9,42.8,46.9,75.9,52.4
		c58.9,9.7,114.5-30.2,124.2-89.1C967.6,329.6,927.7,274,868.8,264.3z"/>
	<g>
	</g>
	<g>
	</g>
	<g>
	</g>
	<g>
	</g>
	<g>
	</g>
</g>
</svg>
