<?xml version="1.0" encoding="utf-8"?>
<svg version="1.1" xmlns="http://www.w3.org/2000/svg" xmlns:xlink="http://www.w3.org/1999/xlink" x="0px" y="0px"
	 viewBox="0 0 1024 1024" style="enable-background:new 0 0 1024 1024;" xml:space="preserve">
<style type="text/css">
	.st1{fill-rule:evenodd;clip-rule:evenodd;fill:#C6C6C6;}
	.st2{fill-rule:evenodd;clip-rule:evenodd;fill:#B1B1B1;}
  .sti:hover {
    fill:#83976b;
  }
</style>
<g id="layer_1">
	<path class="st1" d="M902.2,141H122.5c-31.9,0-57.8,25.9-57.8,57.8v505.4c0,31.9,25.9,57.8,57.8,57.8h779.8
		c31.9,0,57.8-25.9,57.8-57.8V198.8C960,166.9,934.1,141,902.2,141z M709,397.5c-6.7,26-11.2,62.3-41.6,63.5
		c-39.6-27.3-136.6,7.9-181.6,15.3c-21.2,3.5-41-16-52.5-24.1c-23.9-16.7-50.9-30.3-74.4-45.9c-10.8-7.2-27.9-11.2-32.8-24.1
		c1.8-2.6,1.7-3.7,2.2-8.8c4.5-2.8,5-4.5,10.9-6.6c11.4-6.9,35.6,2.3,45.9,6.6c47.3,19.3,78.4,49.7,142.2,24.1
		c14.3-5.7,27.1-5.8,32.8-19.7c3.3-3.6,3.4-4.4,4.4-10.9h-2.2v-2.2c-33.2,6.6-75,7.7-105,0c-5.6-9.2-10.3-13.3-10.9-28.4
		c1.8-2.2,0.8-0.6,2.2-4.4c22.8,0.1,112.2-17.4,124.7-26.3c38.3-0.7,65.2,25.2,94.1,37.2c12.3,5.1,35.7,4,41.6,15.3
		C714.2,365.8,711,389.6,709,397.5z"/>
</g>
<g id="layer_2">
	<path class="st2" d="M64.7,617.5v86.6c0,31.9,25.9,57.8,57.8,57.8H453l-53,63.3c-2.2,2.6-3.3,5.7-3.3,8.9h-57.6
		c-8,0-14.4,6.5-14.4,14.4s6.5,14.4,14.4,14.4h346.6c8,0,14.4-6.5,14.4-14.4s-6.5-14.4-14.4-14.4h-49.6c-0.2-3-1.3-5.9-3.3-8.4
		l-53.6-63.8h323.1c31.9,0,57.8-25.9,57.8-57.8v-86.6H64.7z M469,675.3h86.6c8,0,14.4,6.5,14.4,14.4c0,8-6.5,14.4-14.4,14.4H469
		c-8,0-14.4-6.5-14.4-14.4C454.6,681.7,461.1,675.3,469,675.3z M602.1,834.1H429.6l60.5-72.2h51.4L602.1,834.1z"/>
</g>
</svg>
