<?xml version="1.0" encoding="utf-8"?>
<!-- Generator: Adobe Illustrator 22.1.0, SVG Export Plug-In . SVG Version: 6.00 Build 0)  -->
<svg version="1.1" xmlns="http://www.w3.org/2000/svg" xmlns:xlink="http://www.w3.org/1999/xlink" x="0px" y="0px"
	 viewBox="0 0 1024 1024" style="enable-background:new 0 0 1024 1024;" xml:space="preserve">
<style type="text/css">
	.st0{display:none;}
	.st1{fill-rule:evenodd;clip-rule:evenodd;fill:#B1B1B1;}
	.st2{fill-rule:evenodd;clip-rule:evenodd;fill:#C6C6C6;}
</style>

  <path class="st1" d="M756.6,85l193.6,193.1c13.4,13.3,13.4,34.9,0,48.3L756.6,519.5c-13.4,13.3-35,13.3-48.4,0L514.6,326.4
    c-13.4-13.3-13.4-35,0-48.3L708.2,85C721.5,71.7,743.2,71.7,756.6,85z"/>
  <path class="st2" d="M599.5,609.5h273.8c18.9,0,34.2,15.3,34.2,34.1v273.1c0,18.9-15.3,34.1-34.2,34.1H599.5
    c-18.9,0-34.2-15.3-34.2-34.1V643.7C565.2,624.8,580.6,609.5,599.5,609.5z"/>
  <path class="st1" d="M99.2,609.5H373c18.9,0,34.2,15.3,34.2,34.1v273.1c0,18.9-15.3,34.1-34.2,34.1H99.2
    C80.3,951,65,935.7,65,916.8V643.7C65,624.8,80.3,609.5,99.2,609.5z"/>
  <path class="st2" d="M99.2,131.6H373c18.9,0,34.2,15.3,34.2,34.1v273.1c0,18.9-15.3,34.1-34.2,34.1H99.2
    C80.3,473,65,457.7,65,438.8V165.7C65,146.9,80.3,131.6,99.2,131.6z"/>

</svg>
